<?xml version="1.0" standalone="no"?>
<!DOCTYPE svg PUBLIC "-//W3C//DTD SVG 20010904//EN"
 "http://www.w3.org/TR/2001/REC-SVG-20010904/DTD/svg10.dtd">
<svg version="1.0" xmlns="http://www.w3.org/2000/svg"
 width="987.000000pt" height="987.000000pt" viewBox="0 0 987.000000 987.000000"
 preserveAspectRatio="xMidYMid meet">
<metadata>
Created by potrace 1.11, written by Peter Selinger 2001-2013
</metadata>
<g transform="translate(0.000000,987.000000) scale(0.100000,-0.100000)"
fill="#000000" stroke="none">
<path d="M5090 9800 c-228 -18 -519 -62 -728 -111 l-83 -19 -48 25 c-82 41
-186 65 -284 65 -232 0 -398 -94 -772 -436 -328 -300 -484 -403 -710 -469 -49
-14 -200 -48 -335 -76 -135 -27 -283 -61 -330 -75 -314 -95 -563 -307 -824
-701 -452 -686 -780 -1586 -885 -2433 -37 -300 -44 -426 -38 -747 8 -477 43
-690 192 -1193 143 -481 274 -812 463 -1165 335 -628 767 -1142 1288 -1536
542 -408 1191 -681 1869 -785 246 -38 367 -46 767 -51 631 -9 1025 20 1513
108 651 118 1245 353 1694 672 65 45 104 65 169 84 103 29 200 77 268 130 110
88 289 260 410 395 980 1099 1360 2703 1033 4363 -72 363 -163 644 -319 975
-43 91 -83 183 -90 205 -24 78 -100 254 -165 386 -361 722 -830 1251 -1510
1706 -576 385 -1128 592 -1785 668 -160 19 -598 27 -760 15z m-520 -1521
c-310 -250 -567 -572 -745 -934 -118 -240 -193 -471 -239 -735 -23 -137 -46
-430 -33 -430 3 0 66 27 139 61 527 242 1041 381 1643 444 192 21 801 33 791
16 -4 -6 -19 -11 -34 -11 -15 0 -93 -11 -172 -25 -1211 -212 -2371 -784 -3173
-1565 l-149 -145 102 -80 c712 -562 1527 -865 2326 -865 382 0 738 58 1147
186 60 19 112 32 115 29 7 -7 -310 -160 -427 -206 -220 -85 -480 -151 -726
-186 -196 -27 -646 -25 -842 5 -654 99 -1271 371 -1805 796 l-106 84 -90 -111
c-263 -329 -479 -675 -653 -1047 -50 -107 -65 -149 -58 -162 12 -23 254 -239
348 -311 605 -464 1301 -712 2086 -744 249 -9 244 -15 -45 -59 -137 -21 -497
-29 -659 -15 -662 59 -1300 329 -1796 760 -46 40 -72 56 -76 48 -33 -62 -163
-500 -208 -702 -18 -77 -34 -146 -37 -154 -6 -18 -51 24 -188 179 -119 134
-229 271 -311 389 -68 97 -70 71 23 281 112 256 266 547 434 819 48 79 88 148
88 153 0 5 -18 41 -41 80 -87 148 -164 340 -214 533 -62 235 -69 300 -70 610
0 309 14 432 75 685 104 423 330 915 572 1243 54 72 67 84 44 38 -36 -69 -150
-355 -201 -504 -102 -295 -172 -589 -212 -877 -22 -167 -25 -574 -5 -720 35
-250 105 -490 199 -683 l58 -118 77 103 c374 503 831 957 1317 1308 117 85
391 265 415 273 6 2 13 67 17 148 28 572 248 1139 605 1559 187 221 442 436
646 546 72 39 83 42 48 13z"/>
</g>
</svg>
